<svg xmlns="http://www.w3.org/2000/svg" width="1000" height="1000" viewBox="0 0 264.583 264.583"><g opacity=".2"><path d="M170.483 57.094L169.45 34.91l-.239-17.732 6.282-8.826 10.734-2.703 6.997.397 5.328 4.214-2.624 34.986-1.254 8.517z" fill="#888"/><path d="M178.959 46.23l-2.924-4.105-1.687-5.791-.506-8.04 4.723-10.009 8.94-4.554 9.502-.393 7.14 10.008-.393 8.433-2.25 7.59v3.318l-1.967 3.71-2.474 1.294 1.012-4.835.731-4.667-20.803-2.643.45 5.06z" fill="#929292"/><path d="M180.477 47.69l-.194-4.173 12.844 2.262.393 2.362 1.679 2.275-6.348 4.73-9.037-4.177z" fill="#c7c7c7"/><path d="M198.356 18.117l-7.59 2.164-7.647-2.108-8.208 11.976-10.908-4.105-.787 1.181 3.936 3.823 5.397 6.804 2.811.9 2.25-1.463 1.292 5.06 4.266 4.433 3.437 2.146s2.362.394 2.587.281c.225-.112 2.755-1.125 2.755-1.125l5.847-5.341 1.574-3.486s1.35.506 1.687.562c.337.057 10.57-12.032 10.57-12.032l-.562-1.462-7.928 5.06zm20.72 98.224l-2.503 2.361 3.064 6.073 2.952-1.996-2.305-5.679zm-52.926 23.924l-8.667 9.502 2.862 2.863 1.67-.875 3.18 1.073 1.55-3.419 1.75-4.174-.874-3.499z" fill="#ddd"/><path d="M180.477 47.69l-2.699 1.126.225 2.867-1.856 1.462-2.023 2.698-16.475 31.767-2.782 12.647-1.014 8.73 5.144 6.625 6.38-3.067 1.416-5.252.006-7.163 2.596-9.199 1.366-.997 36.02-4.573 7.141 3.113 3.245 4.628 12.21 8.391 3.946-6.574-2.527-5.307-6.522-9.737-21.757-20.49-1.856-5.003-4.442-.45-.168-5.06-2.53-.731.843 2.136-2.699 1.406h-1.574l-.337 2.192-.957.732-1.967-1.069V52.47l-6.241-2.137zm27.269 87.149l-10.32 8.513 2.617 13.752.337 13.326 2.98 12.256-1.461 9.671 6.521 14.45 8.603-13.438.168-6.69-1.742-13.72 3.317-18.666-.109-16.139zm-25.375 1.73l-12.708 4.593-2.082 9.043-2.067 24.132-3.738 9.303-1.71 7.832 5.805 12.762 9.582-11.052 1.749-13.04 4.731-8.985 8.49-25.515z" fill="#e8e8e8"/><path d="M176.148 53.145l-12.821 9.157-10.774 21.707 7.315 5.487 6.958 1.232 3.936-.795 2.663 7.514-.874 3.857 2.822 3.657-4.015 6.52.477 12.246-4.453 17.015 3.34 1.75v1.908l5.884-.159 5.725.477 5.725 2.068 18.288-3.181.954-1.75 9.224-2.862 3.657-.954-3.498-17.493-6.838-14.63-2.744-2.505-.119-2.743 3.101-4.254-3.856-3.141.556-7.912 2.386 3.22 8.388-3.18 6.72-5.526-8.747-10.973-2.545-5.169-11.197-10.082-5.454 10.345-6.747 5.566-6.803-7.984-7.422-5.96z" fill="#565656"/><path d="M224.714 25.528l-6.06 4.818-.113 3.401-7.752 16.053-4.842 1.152.45 2.361-3.156-3.653-1.687 1.176-5.503 1.41 5.735 1.405 2.699 3.486-2.699-3.486 11.197 10.082 2.545 5.169 2.617 3.433 1.97-.13-.674-10.458.674-2.249-3.908-1.342 1.905-1.608-1.82-4.36 7.984-16.867 2.333-1.742.207-7.2z" fill="#757575"/><path d="M203.015 55.142l-2.396 6.723-3.578 7.871-7.475 8.19-7.871 6.839-10.735 6.917-.397 2.942 1.192 3.976 1.988 1.352 6.044-1.83 7.315-6.042 8.19-6.838 6.6-6.918 5.327-7.951 3.394-8.739-1.6-1.546zm19.94 35.786l-2.615.14-3.795 2.193-.478 1.546-1.63 3.57-.161 1.573-1.498.536-1.153 3.176-1.209 1.238-.573 1.016 6.837 14.63 1.664 8.193 2.08-.563.844-2.501 1.321-2.896-1.911.478-1.35-.703-1.04-2.474.112-2.586 1.265-1.855-.562-1.631.928-.169.787-1.152 2.052-1.518 2.165-2.306.14-1.883 1.013-.956 1.04-.815 1.546-2.699.618-2.558-.59-4.217-2.024-3.064zM197 100.35l-10.496 1.113-4.413 1.113.398 4.691 5.873.805 10.188-1.361 3.26-.835-.357-5.208zm9.98.318l-2.665.198.676 4.175 2.107-1.63zm-28.03 2.464l-3.06.676-.08 2.466 3.3 1.51zm-25.126 6.044l-1.312.397-.835 2.147-.358 8.11.418.16-.08 1.868h-.576l.04 7.037h.238l.318 3.18-.676.318.915 4.97 1.034 7.952 2.226 4.77 1.988.835 1.073-.199 3.18.2 2.625-.04 1.71-2.028-.438-3.22 2.306-3.897-.875-4.492-2.544-1.113.12-4.612-.478-.398.437-2.842.637-.1 1.351-4.174-.497-.338.279-1.471.298-.219.318-1.43.675-3.977-.477-3.935-2.107.715-4.611.16-4.771-1.949zm5.527 81.74l-1.432 8.508-.954 10.972-4.533 7.872 1.67 12.405-3.18 12.403-3.737 1.91-2.942 4.531.318 4.533 5.486 3.26 5.248-.318 7.474-3.897 1.125-3.885 2.136-2.396 1.033-2.067-.477-4.374.239-5.089-1.273-1.033.318-2.227 4.771-4.612-.318-8.11 2.863-7.633 1.59-8.27-.08-4.532 1.352-6.52-7.236 1.988-6.122-.955zm42.141 1.43l-.953 14.473 1.113 11.29-1.83 10.417 3.181 3.896-1.351 6.043.716 6.52 2.464 2.783.636 4.532 3.579 2.147 7.235 1.988 6.282-3.34.636-3.26-1.193-4.532-4.452-3.419-.955-3.896 1.511-1.59-2.545-3.658 3.26-8.11-1.749-7.952.239-12.324-.557-11.212-4.532 2.783-6.6-.318z" fill="#494949"/><path d="M158.624 189.87l-1.976 9.792 4.93 5.725 3.3-9.643 2.316.562 1.142 7.81 7.316-2.784s1.665-10.457 1.188-10.377c-.477.08-8.027 3.38-8.027 3.38l-6.122-.955zm42.144 1.09l-1.023 9.736 6.52 4.612 1.917-8.041 3.251.168 1.272 8.43 5.566-1.75.328-12.253-6.37 4.063-6.6-.318z" fill="#888"/><path d="M191.553 74.904l-9.858 9.86 6.822 6.107L200.1 80.863zm.14 2.361l2.11 1.478-2.213 2.38.815.758 2.319-2.493 2.508 1.757-8.659 7.45-4.554-4.02zm7.315 22.444l-13.016 1.407 1.21 7.596 12.004-1.641zm-1.402 1.207l-.073 2.256h-3.951v1.113h3.915l-.067 2.081-9.029.663-1.052-5.107z" fill="#a3a3a3"/><path d="M207.69 63.378l-5.904-9.727-5.735-1.406.169 1.687 2.98 1.237-2.868 8.827-6.747 5.566-6.803-7.984-7.422-5.96.788-2.473-2.418-.619-2.474 2.53-.9 14.45 6.691-5.397 6.129 1.967-3.149 4.442 9.727 1.968 4.667-3.036 5.678-.956-2.867-2.699 3.43-2.586z" fill="#4a4a4a"/><path d="M173.73 32.004l.056-2.136-2.867 2.361.843-4.442.169-5.285 3.092-7.14 5.173-5.848 5.116-3.317 2.024.169 2.587 3.036.674 1.18 3.149-1.574 3.936-.843 5.397 4.61 3.149 4.892 2.305 6.86-.45 4.947-1.574-3.26-1.63 8.826-1.35-1.911-1.462 4.329-.675-5.904-1.461-5.397-1.687 4.779v-4.16l-1.968-6.017-2.699-5.622-2.53 3.767-1.406-3.374h-2.53l-2.417 6.466-3.599 6.016-3.71 2.587-2.924 4.329z" fill="#b0b0b0"/></g><g fill="#f5dcc4"><path d="M55.336 136.126l-3.022-10.973-.477-29.738 10.337-2.863 14.63 2.704 4.771 8.905 1.908 9.86s-2.703 4.771-2.862 5.725c-.16.954-.477 4.771-.477 4.771l-2.227 8.906-8.428 6.36z" fill="#61bf52"/><path d="M59.766 134.052l-5.172-5.51-.787-25.414 5.06-5.397 7.871-.113 6.529 3.886 3.93 13.881-4.274 14.731-3.486 4.161z" fill="#dec446"/><path d="M59.879 130.847l.45 4.554 4.16 2.924 5.173-5.229.056-3.373-4.554-2.53z" fill="#efc29e"/><path d="M67.104 103.207l-3.5 1.829-4.372-.874-3.658.397-3.578 4.77-1.351 9.463-8.509-.636.08 1.59 7.713 4.373 2.624.239 2.147 3.578 3.975 2.465 5.09 1.908 3.1-1.113 4.294-2.067 2.703-2.306 1.352-3.737 1.908.875 9.621-5.646-.158-1.67-9.065.557-5.725-12.961zm2.067 29.262l-3.697 3.3-3.817.079-1.59-.756-6.838 4.533 10.416 9.422L74.3 137.08l-4.533-2.385zm-32.175 21.599l-5.736 10.12 1.294 3.599 11.694 8.8-1.124 2.36-2.165-1.265-.478 1.406-1.208-.534-.984 1.827 4.16 3.458 3.88.225 5.453-4.273-1.349-6.916-6.83-8.715 1.433-2.726-2.446-6.494zm48.158 1.3l-.12 6.878.954 1.59-3.618 4.374-5.685 4.612 1.63 11.728 1.55.199 2.823-.955 3.817-2.465.199-3.617-.279-1.511-1.192.477.08-1.232 4.81-3.26 3.816-4.613 2.267-4.492-3.618-6.242zm-11.05 39.238l-5.06 9.67 4.554 11.583 2.024 9.334 8.377 7.14s3.767-9.108 3.655-9.502c-.113-.393-3.43-10.177-3.43-10.177l-1.35-14.056zm-20.86 1.125l-7.646 6.016-1.237 12.256-2.98 6.635 2.811 10.795 10.402-7.534-.225-7.534 4.835-12.65z"/><path d="M74.737 137.16l3.34.874 3.737 3.499 5.089 7.395 6.36 7.076-3.577 3.26-4.612 3.181-5.805 2.067-1.352-.795.716 3.658-2.783 1.988-.397 3.021 3.419 2.783.795 9.383 3.975 13.279-4.532 1.749-.159 1.75-8.27 1.749-5.406.715-8.11-.318-5.01-.477-5.407-2.067-3.34-1.432-2.305-1.51 5.486-13.756.875-6.6 2.942-4.85.08-4.135-2.545-1.51.715-2.148-.397-2.464-3.976-1.352-5.168-4.771-2.306-2.703 4.77-6.68 5.17-7.315 7.235-2.465 8.925 8.27z" fill="#2f911b"/><path d="M59.868 134.377l-2.306-.557-3.578 3.42.159 11.608s5.566-4.214 5.884-4.214c.318 0 2.624 1.193 2.624 1.193l3.737-1.75 5.964 3.897 2.385-10.814-2.704-3.578-2.544-.557.398 1.431 1.749 1.193-4.691 5.963-2.386 1.432-1.51 2.067-1.59-1.113-3.102-4.373-.557-2.545 2.068-1.352z" fill="#297d17"/><path d="M73.146 134.958l1.59 2.202 3.34.874 3.738 3.499 3.18 4.536.705-1.361.605-4.359-2.08-1.94 7.984-9.08 1.518 1.068 1.35-1.799-.282-3.036-2.192-2.53-4.442.056-1.18 1.462 1.405 1.012-8.49 8.771-2.193-1.237-3.542 1.237z" fill="#cbbb8d"/><path d="M76.208 136.722l-1.83.16-7.99 8.785-3.022 3.022-7.394 4.652-8.946 5.447 1.988 7.076 8.11-3.896 7.952-5.486 8.508-7.395 7.792-8.27zm-14.949 31.806l-6.798.954v4.254l4.413.16 4.73.397h5.607l2.306-.517-.2-4.493-4.134-.715zm-11.012.556l.079 3.578 1.63.716.676-2.187-.437-1.67zm25.702.537l-2.961.1.198 3.578 2.664-1.432zm-34.846 53.135l-1.948 7.355-1.313 5.725-2.027 2.584 2.664 3.698-.12 2.823-3.578 6.56-.715 2.822.516 2.465.915 1.47 3.101.677 4.93-.358 3.617-.835 2.267-1.908.357-8.429-.596-3.22 2.147-2.266-.358-5.208 2.107-6.48.438-6.243-5.169 1.91-4.135-.915zm47.032.597l-3.777 3.22-4.652.875-3.538-1.113.477 7.314 2.385 5.368-.158 5.049 2.584 2.544-.636 6.958 1.073 3.18 3.42 1.67 4.77.12 5.208-1.472.517-4.532-3.3-5.526-.159-2.624 1.432-1.153-2.386-6.958-.477-5.287z" fill="#6a5127"/><path d="M40.506 219.814l-2.743 4.93 3.844 5.505 1.967-4.913 3.928 1.203-.506 4.708 4.472-.817 3.227-2.112.64-5.483-4.154 1.432-5.368.597-3.378-2.426zm48.02 2.005l-2.643 2.84-3.402 1.742-3.767-.028-3.345-1.602-1.237 4.245 3.639 4.523 4.541-.7.338-5.257 3.317-.984s1.405 4.75 1.63 5.229c.225.478 4.105-3.514 4.105-3.514z" fill="#bfa452"/><path d="M62.802 147.996l-4.498 3.88s4.273 7.027 4.498 7.027c.225 0 4.948-3.71 4.948-3.71zm-.337 2.418l.9 1.349-.731.562.674 1.18 1.125-.505 1.012 1.63-2.418 1.856-2.867-4.386zm-5.004 17.598l.281 7.028 10.402-.113.9-6.409zm2.08 1.35l7.535.224-.056 1.462-3.768.337.45 1.293 3.261.225-.619 1.294-6.802-.169z" fill="#d4bd72"/><path d="M52.232 120.84c-.337 0-4.16-3.15-4.16-3.15s-1.406-6.465-1.575-5.96c-.168.507-2.642 4.218-2.642 4.218l2.923-10.908 3.824-7.084 4.442-3.936h3.991l2.587 1.63 1.405 1.968 3.093-4.216s2.923-.844 3.148-.844c.225 0 4.049 2.25 4.049 2.25l4.779 5.34 2.98 6.073.843 4.217-1.068 4.835-1.462 2.024-1.687.731-.562.506-.787-4.442-3.43-5.96-1.406 4.61-.955-5.622-1.237-6.915-2.587-3.486-2.417 1.968-.9 2.98-2.811-2.25-1.8-.786-2.024 2.98-1.63 4.722-.9 4.217.338 3.599-1.968-2.306-.45 3.88-.618 1.911z" fill="#e7d479"/></g></svg>